PathFileType	4	(X/Y/Z)	Patient4_TMGait_0pt2_01_right_07.trc.trc
DataRate	CameraRate	NumFrames	NumMarkers	Units	OrigDataRate	OrigDataStartFrame	OrigNumFrames
42.042042042042	42.042042042042	5	33	mm	42.042042042042	106	       141
Frame#	Time	Sacral			L.Shoulder			Chest			R.Shoulder			Neck			R.ASIS			L.ASIS			R.Thigh.Superior			R.Thigh.Lateral			R.Thigh.Inferior			R.Patella			L.Thigh.Superior			L.Thigh.Lateral			L.Thigh.Inferior			L.Patella			L.Shank.Superior			L.Shank.Lateral			L.Shank.Inferior			R.Shank.Superior			R.Shank.Lateral			R.Shank.Inferior			R.Heel			R.Midfoot.Superior			R.Midfoot.Lateral			R.Toe			L.Heel			L.Midfoot.Lateral			L.Midfoot.Superior			L.Toe			L.Elbow			L.Wrist			R.Elbow			R.Wrist			
		X1	Y1	Z1	X2	Y2	Z2	X3	Y3	Z3	X4	Y4	Z4	X5	Y5	Z5	X6	Y6	Z6	X7	Y7	Z7	X8	Y8	Z8	X9	Y9	Z9	X10	Y10	Z10	X11	Y11	Z11	X12	Y12	Z12	X13	Y13	Z13	X14	Y14	Z14	X15	Y15	Z15	X16	Y16	Z16	X17	Y17	Z17	X18	Y18	Z18	X19	Y19	Z19	X20	Y20	Z20	X21	Y21	Z21	X22	Y22	Z22	X23	Y23	Z23	X24	Y24	Z24	X25	Y25	Z25	X26	Y26	Z26	X27	Y27	Z27	X28	Y28	Z28	X29	Y29	Z29	X30	Y30	Z30	X31	Y31	Z31	X32	Y32	Z32	X33	Y33	Z33	

106	16.407500000000	800.697672476443	995.196577080670	403.008740878745	967.875906902930	1426.252340187401	218.869138815784	1069.021963680910	1362.226732384519	382.835925882469	981.973616657344	1432.105828525151	555.988918029605	947.916833981082	1490.388262786241	377.041535835952	1030.117959211925	939.287643560012	525.005576101630	1019.899372846073	956.750677581250	250.780772952025	1094.552659311213	748.679663814188	501.611706953726	1035.440729160298	634.178427444434	573.927876591700	1119.550791723947	581.656814122239	496.883889940643	1121.884128171625	470.768976875278	525.061367370848	1075.936933489701	744.790648746381	293.090320715848	992.533439799667	619.477472925897	241.292511839458	1075.947209886807	549.143953180864	312.328338940269	1076.833443858774	477.242997288247	326.399544748145	1040.480812407893	403.578973493841	323.683814296388	942.134852768953	296.055042899129	275.228684198324	972.869038837639	185.517347010392	355.096447486098	1041.397499758208	403.248298658239	537.349385965893	915.622574564917	372.510135774309	595.703788574851	901.275525023975	258.434103845509	556.446911615522	698.377114084120	197.374574588484	522.233340723708	864.103573875339	143.694328607717	584.158668446464	751.891867734322	149.616925921930	607.666051456081	924.574251048487	37.353927816416	630.273799231186	828.127599106283	39.228722121002	398.244818552281	903.503173598218	36.243407579297	318.819347747749	987.692699230671	95.873966271982	347.252032305365	1115.763962852076	40.750879311787	320.239032083321	1021.538896320141	1078.571835790858	97.555523034504	1170.942089601868	864.506828347230	119.967022875399	968.470423597306	1077.616630499120	669.848454653866	1077.187439144181	842.623675613187	678.764442383669	
107	16.431285714286	798.298872231422	995.074056944556	400.166836652425	969.264538054182	1426.495271732857	218.185851789437	1067.494532448271	1362.274348057050	383.772964492554	977.520071519457	1432.021818774206	555.482180494301	946.790423345900	1490.464402617527	376.232579398226	1026.767262930140	940.120682752234	524.810079228044	1019.282008270164	956.615179107037	250.359619956268	1095.217423347065	752.109443528790	500.037411663978	1039.440531711259	636.301177527020	572.400849573966	1124.198752417927	585.605767581022	494.643691310145	1129.603719189473	474.867578949943	522.891759897593	1074.095002434771	743.984231328688	292.640490923759	990.148017323839	619.098898622785	240.669649513579	1072.856463689306	548.456526598084	312.139417643929	1073.307700214378	476.641338075921	326.358736650142	1036.772608344285	403.069606345214	323.536487598815	938.285551550772	295.734664811743	274.952373369258	968.431663236085	185.251573815013	355.062032274381	1050.617825186200	405.760560910348	535.493300498680	925.754693612628	372.217066351130	593.812844168477	914.234270531525	257.970489546053	554.591247811734	713.270223749249	190.643096350443	520.551643741846	880.393086629752	143.516762450162	582.016190540193	768.597291367699	145.185294170961	605.902506463981	944.661891303907	39.003173056807	627.958197465600	823.286443336234	39.166754922279	398.202841243031	898.711767224605	36.193226142021	318.756042412367	982.887692660343	95.835633236172	347.232647747707	1110.982597037035	40.733870339971	320.239743779379	1032.475309036666	1080.623173874989	96.781645162045	1195.689561354360	877.015134991563	120.517493242987	947.652809948402	1079.190734582947	669.199668260361	1037.180897423589	835.450549882575	680.673475122367	
108	16.455071428571	796.023792880603	995.347931563430	397.589585291933	970.800226273281	1427.021230896720	217.828725816705	1066.048463930697	1362.635547799716	385.008287909535	973.147175022945	1432.372002590039	555.145834699592	945.759696303820	1490.838760951646	375.666995037952	1023.336822964097	941.190160034132	525.022339257827	1018.818975117379	956.779320666256	250.358702804972	1094.906144066503	755.433047554365	499.089773996812	1041.911074712652	638.647050548350	571.524260405515	1127.035429176962	589.482456022117	493.147178722862	1135.539340899040	479.432269681797	521.364833522181	1071.906356429935	743.268166430239	292.562863898959	987.240782033650	618.979719658735	240.238752603200	1069.063446361603	547.887857942878	312.110304460530	1068.957067075135	476.234122960492	326.437364766313	1032.422564217360	402.801122977543	323.438138898140	933.968251970710	295.515312877681	274.709575147649	963.755321186471	185.105387376345	355.031843172563	1058.959032334990	408.388190450967	534.337837013613	936.008713250037	370.504453219716	593.045149636846	928.584342093569	256.263213158778	553.620515612652	730.829991775106	180.119665387372	520.441623537377	899.697783366676	141.934036924490	580.585878377384	788.849750463811	137.683177901484	605.313518883472	969.256055309327	40.830905984393	625.695880356308	818.433361174220	39.093802250840	398.163932788831	893.907181297886	36.138251381374	318.692760606531	978.064706182211	95.808487151737	347.205475297776	1106.188546653134	40.743393010650	320.246013694900	1042.848295795293	1083.291556171203	96.201297030302	1219.407335348805	891.217142329446	121.202591118117	927.394344744043	1082.058795531093	668.549904361578	998.799403843498	831.617082839436	681.692776888116	
109	16.478857142857	793.895861892905	996.006495671601	395.279975616905	972.474952048533	1427.791243590467	217.771112742407	1064.699273131925	1363.292039615586	386.509735016095	968.910226631091	1433.159879948677	554.961277440735	944.843919194727	1491.492742197411	375.312529594511	1019.845857831962	942.462467997832	525.639736458552	1018.508752466132	957.211804587537	250.786062093151	1093.640305833305	758.530626670696	498.852025428766	1042.794639420351	641.088645971446	571.371153933497	1128.068153020730	593.128641531250	492.518304377843	1139.628400091639	484.322576015614	520.603039581695	1069.368829914698	742.640110851925	292.886654653567	983.822274793697	619.126347042998	239.998013206260	1064.557320008644	547.438758537212	312.249736124488	1063.764666520526	476.026452030597	326.633923982803	1027.421331896572	402.780042288697	323.385360760877	929.177637747464	295.400648701950	274.499102757152	958.836305513480	185.081170480166	355.004526091210	1066.345712865292	411.081146800063	533.959379369738	946.353150566660	367.483962193571	593.419800710584	944.228262119805	253.511071465985	553.579954327966	751.113350284526	166.448428668834	521.797117959639	921.791761846544	139.130179694179	579.915245021802	812.479442795963	127.635731875616	605.836284890875	997.769469813499	42.861156006406	623.614951588738	813.573880484921	39.012244226149	398.126794149321	889.089832835505	36.080121097989	318.631133403446	973.225684154500	95.792136585177	347.172017937528	1101.382766822382	40.777564530261	320.258137260787	1052.648072143870	1086.471998259495	95.803247701118	1241.846536766008	906.890874432857	122.011561193101	907.856983158141	1086.097355813139	667.850798152275	962.653032849864	830.799290109745	681.803245944304	
110	16.502642857143	791.927717689293	997.000505832006	393.251645009330	974.266683736060	1428.740034701813	217.991003935588	1063.457860162191	1364.193268571829	388.244565627565	964.868594365249	1434.346834505253	554.921953022921	944.057806149519	1492.378257925734	375.148292551528	1016.321653102080	943.880220667283	526.652369835762	1018.332641686116	957.851461220128	251.640457788789	1091.490368707333	761.291313353507	499.386777062312	1042.108998437948	643.486595929549	571.980856831815	1127.398177634594	596.403232666328	492.841917604010	1141.892156301613	489.379258554811	520.676967834279	1066.507771936193	742.091418297291	293.630497452935	979.942718858693	619.524530217404	239.946198526019	1059.384691250229	547.100375510435	312.563381483112	1057.781643303153	476.006308084887	326.944958972317	1021.812874431937	402.992905198407	323.378062515806	923.944934102540	295.388147632832	274.323461505386	953.691255054687	185.171572268879	354.979972772226	1072.731786507096	413.795673813337	534.378456345784	956.724293052206	363.376399052740	594.865450301539	960.950778105132	250.018219625109	554.433591312320	773.963252129392	150.533964165211	524.385734856711	946.241014448468	135.413754666885	579.968505171325	839.066113278723	115.779049648460	607.301222444174	1029.337048696859	45.139065329164	621.791488898703	808.714315446634	38.926218933949	398.089497832144	884.261337541038	36.021054039675	318.572985551583	968.374076196452	95.784985006593	347.134616292925	1096.567071029082	40.832155735436	320.275680108188	1061.874699250464	1090.032366705646	95.589507429169	1262.802428037021	923.755678995692	122.949445171566	889.229316670247	1091.114585136730	667.055954662478	929.231486680321	832.526576502064	681.024515297467	
